<!-- icon666.com - MILLIONS vector ICONS FREE --><svg id="Layer_1" enable-background="new 0 0 100 100" viewBox="0 0 100 100" xmlns="http://www.w3.org/2000/svg"><g><path d="m50 89.25c18.266 0 34.562-13.129 38.383-31.007 1.909-8.933.623-18.432-3.636-26.515-4.099-7.779-10.819-14.066-18.859-17.629-8.363-3.707-17.964-4.353-26.754-1.825-8.48 2.438-15.999 7.789-21.118 14.972-10.703 15.017-9.272 36.11 3.32 49.567 7.379 7.886 17.862 12.437 28.664 12.437zm-2.12-20.446-10.96-10.961c-2.736-2.736 1.507-6.979 4.243-4.242l5.505 5.506v-25.459c0-1.816 1.517-3.332 3.333-3.332s3.333 1.516 3.333 3.332v25.586l5.529-5.398c2.762-2.699 6.966 1.583 4.191 4.293l-10.958 10.7c-1.174 1.148-3.054 1.137-4.216-.025z"></path></g></svg>