<!-- icon666.com - MILLIONS vector ICONS FREE --><svg id="Musik_icon" viewBox="0 0 24 24" xmlns="http://www.w3.org/2000/svg" data-name="Musik icon"><g fill="rgb(0,0,0)"><path d="m2 16h3.18l.21-.21.72-.72.89-.89 8-8 1-1 1-1v-2.18a1 1 0 0 0 -.54-.89 1 1 0 0 0 -1 .07l-9.77 6.82h-3.69a1 1 0 0 0 -1 1v6a1 1 0 0 0 1 1z"></path><path d="m16 23a1 1 0 0 0 .46-.11 1 1 0 0 0 .54-.89v-12.18l-1 1-1 1-4.86 4.86-.72.72-.71.71 6.72 4.71a1 1 0 0 0 .57.18z"></path><path d="m18.63 8.11a1 1 0 0 0 -.58.63.68.68 0 0 0 -.05.26v7a1 1 0 0 0 2 0v-7a1 1 0 0 0 -.4-.8.94.94 0 0 0 -.6-.2.69.69 0 0 0 -.25 0 1 1 0 0 0 -.12.11z"></path><path d="m22 6h-.2a1 1 0 0 0 -.8.8 1.23 1.23 0 0 0 0 .2v11a1 1 0 0 0 2 0v-11a1 1 0 0 0 -1-1z"></path><path d="m21.29 1.29-4.29 4.29-1 1-1 1-7.35 7.35-.72.72-.72.72-4.92 4.92a1 1 0 0 0 0 1.42 1 1 0 0 0 1.42 0l5.17-5.17.72-.72.72-.72 5.68-5.68 1-1 1-1 5.71-5.71a1 1 0 1 0 -1.42-1.42z"></path></g></svg>